<?xml version="1.0"?>
<svg xmlns="http://www.w3.org/2000/svg" xmlns:lc="https://librecad.org" xmlns:xlink="http://www.w3.org/1999/xlink" width="100mm" height="60mm" viewBox="0 0 100 60">
    <g lc:layername="060" lc:is_locked="false" lc:is_construction="false" fill="none" stroke="black" stroke-width="1">
        <path d="M1.2,10 L1.18,29.94114677 L4.06788532,58.82 L16.12204383,58.82 L20.96933953,44.39940394 L29.32739451,33.95183521 L50,28.78368384 L70.67260549,33.95183521 L79.03066047,44.39940394 L83.87795617,58.82 L95.93211468,58.82 L98.82,29.94114677 L98.8,10 L90,0 L100,0 L100,30 L97,60 L83,60 L78,45 L70,35 L50,30 L30,35 L22,45 L17,60 L3,60 L0,30 L0,0 L10,0 L1.2,10 Z "/>
    </g>
</svg>
