<?xml version="1.0"?>
<svg xmlns="http://www.w3.org/2000/svg" xmlns:lc="https://librecad.org" xmlns:xlink="http://www.w3.org/1999/xlink" width="100mm" height="60mm" viewBox="0 0 100 60">
    <g lc:layername="0" lc:is_locked="false" lc:is_construction="false" fill="none" stroke="black" stroke-width="1">
        <path d="M3.52720255,54.89404754 L1.09483045,29.89348101 L1.1,17 A7.28325073,7.28325073 0 0,1 6.85695338,9.64238345 A5,5 0 1,0 0,5 L0,30 L2.43302781,55.00730606 A5.6,5.6 0 0,0 13.22673539,56.41028284 A40.02538152,40.02538152 0 0,1 50,27 A40.02538152,40.02538152 0 0,1 86.77326461,56.41028284 A5.6,5.6 0 0,0 97.56697219,55.00730606 L100,30 L100,5 A5,5 0 1,0 93.14304662,9.64238345 A7.28325073,7.28325073 0 0,1 98.9,17 L98.90516955,29.89348101 L96.47279745,54.89404754 A4.5,4.5 0 0,1 87.8187402,56.06345018 A41.15944435,41.15944435 0 0,0 50,25.9 A41.15944435,41.15944435 0 0,0 12.1812598,56.06345018 A4.5,4.5 0 0,1 3.52720255,54.89404754 Z "/>
    </g>
</svg>
