<?xml version="1.0"?>
<svg xmlns="http://www.w3.org/2000/svg" xmlns:lc="https://librecad.org" xmlns:xlink="http://www.w3.org/1999/xlink" width="100mm" height="60mm" viewBox="0 0 100 60">
    <g lc:layername="060" lc:is_locked="false" lc:is_construction="false" fill="none" stroke="black" stroke-width="1">
        <path d="M18.86188486,51.77509125 A7.9,7.9 0 0,1 3.14935169,51.88165819 L1.09522944,29.89766485 L1.1,17 A7.28325073,7.28325073 0 0,1 6.85695338,9.64238345 A5,5 0 1,0 0,5 L0,30 L2.05504639,51.99388373 A9,9 0 0,0 19.94495361,51.99388373 A31.04021975,31.04021975 0 0,1 50,30 A31.04021975,31.04021975 0 0,1 80.05504639,51.99388373 A9,9 0 0,0 97.94495361,51.99388373 L100,30 L100,5 A5,5 0 1,0 93.14304662,9.64238345 A7.28325073,7.28325073 0 0,1 98.9,17 L98.90477056,29.89766485 L96.85064831,51.88165819 A7.9,7.9 0 0,1 81.13811514,51.77509125 A32.13166619,32.13166619 0 0,0 50,28.9 A32.13166619,32.13166619 0 0,0 18.86188486,51.77509125 Z "/>
    </g>
</svg>
