<?xml version="1.0"?>
<svg xmlns="http://www.w3.org/2000/svg" xmlns:lc="https://librecad.org" xmlns:xlink="http://www.w3.org/1999/xlink" width="200mm" height="150mm" viewBox="0 0 200 150">
    <g lc:layername="0" lc:is_locked="true" lc:is_construction="false" fill="none" stroke="black" stroke-width="1">
        <path d="M0,0 L0,90 L10,140 L20,140 L25,95 L70,95 L90,150 L100,150 L110,150 L130,95 L175,95 L180,140 L190,140 L200,90 L200,0 "/>
    </g>
    <g lc:layername="090" lc:is_locked="false" lc:is_construction="false" fill="none" stroke="black" stroke-width="1">
        <path d="M0,0 L0,90 L10,140 L20,140 L25,100 L70,100 L90,150 L100,150 L110,150 L130,100 L175,100 L180,140 L190,140 L200,90 L200,0 "/>
    </g>
</svg>
